<svg width="64" height="64" viewBox="0 0 64 64" fill="none" xmlns="http://www.w3.org/2000/svg">
<path fill-rule="evenodd" clip-rule="evenodd" d="M64 32C64 49.6731 49.6731 64 32 64C35.3579 64 38.6949 63.4715 41.8885 62.4338C45.0821 61.3962 48.0925 59.8623 50.8091 57.8885C50.64 58 50.3434 58.08 50.08 58.08C49.3731 58.08 48.8 57.5069 48.8 56.8C48.8 56.2758 49.115 55.8253 49.5662 55.6274C56.7725 50.261 61.44 41.6755 61.44 32C61.44 15.7408 48.2592 2.56 32 2.56C15.7408 2.56 2.56 15.7408 2.56 32C2.56 41.5554 7.11234 50.0475 14.1665 55.4259C14.6742 55.5958 15.04 56.0752 15.04 56.64C15.04 57.3469 14.4669 57.92 13.76 57.92C13.5772 57.92 13.36 57.92 13.1909 57.8885C15.9075 59.8623 18.9179 61.3962 22.1115 62.4338C25.305 63.4715 28.6421 64 32 64C14.3269 64 0 49.6731 0 32C0 14.3269 14.3269 0 32 0C49.6731 0 64 14.3269 64 32Z" fill="#D8E2FF"/>
<path fill-rule="evenodd" clip-rule="evenodd" d="M14.5603 56.7962C14.5603 57.1497 14.2737 57.4362 13.9203 57.4362C13.5668 57.4362 13.2803 57.1497 13.2803 56.7962C13.2803 56.4428 13.5668 56.1562 13.9203 56.1562C14.2737 56.1562 14.5603 56.4428 14.5603 56.7962Z" fill="white"/>
<path fill-rule="evenodd" clip-rule="evenodd" d="M3.52023 41.7572C3.52023 42.1106 3.23369 42.3972 2.88023 42.3972C2.52678 42.3972 2.24023 42.1106 2.24023 41.7572C2.24023 41.4037 2.52678 41.1172 2.88023 41.1172C3.23369 41.1172 3.52023 41.4037 3.52023 41.7572Z" fill="white"/>
<path fill-rule="evenodd" clip-rule="evenodd" d="M3.52023 22.2416C3.52023 22.595 3.23369 22.8816 2.88023 22.8816C2.52678 22.8816 2.24023 22.595 2.24023 22.2416C2.24023 21.8881 2.52678 21.6016 2.88023 21.6016C3.23369 21.6016 3.52023 21.8881 3.52023 22.2416Z" fill="white"/>
<path fill-rule="evenodd" clip-rule="evenodd" d="M14.7195 7.03844C14.7195 7.39189 14.4329 7.67844 14.0795 7.67844C13.726 7.67844 13.4395 7.39189 13.4395 7.03844C13.4395 6.68498 13.726 6.39844 14.0795 6.39844C14.4329 6.39844 14.7195 6.68498 14.7195 7.03844Z" fill="white"/>
<path fill-rule="evenodd" clip-rule="evenodd" d="M32.6404 1.28062C32.6404 1.63408 32.3538 1.92062 32.0004 1.92062C31.6469 1.92062 31.3604 1.63408 31.3604 1.28062C31.3604 0.927169 31.6469 0.640625 32.0004 0.640625C32.3538 0.640625 32.6404 0.927169 32.6404 1.28062Z" fill="white"/>
<path fill-rule="evenodd" clip-rule="evenodd" d="M50.5603 7.03844C50.5603 7.39189 50.2737 7.67844 49.9203 7.67844C49.5668 7.67844 49.2803 7.39189 49.2803 7.03844C49.2803 6.68498 49.5668 6.39844 49.9203 6.39844C50.2737 6.39844 50.5603 6.68498 50.5603 7.03844Z" fill="white"/>
<path fill-rule="evenodd" clip-rule="evenodd" d="M61.9196 22.5619C61.9196 22.9153 61.6331 23.2019 61.2796 23.2019C60.9262 23.2019 60.6396 22.9153 60.6396 22.5619C60.6396 22.2084 60.9262 21.9219 61.2796 21.9219C61.6331 21.9219 61.9196 22.2084 61.9196 22.5619Z" fill="white"/>
<path fill-rule="evenodd" clip-rule="evenodd" d="M61.7605 41.5931C61.7605 41.9466 61.4739 42.2331 61.1205 42.2331C60.767 42.2331 60.4805 41.9466 60.4805 41.5931C60.4805 41.2397 60.767 40.9531 61.1205 40.9531C61.4739 40.9531 61.7605 41.2397 61.7605 41.5931Z" fill="white"/>
<path fill-rule="evenodd" clip-rule="evenodd" d="M50.7195 56.7962C50.7195 57.1497 50.4329 57.4362 50.0795 57.4362C49.726 57.4362 49.4395 57.1497 49.4395 56.7962C49.4395 56.4428 49.726 56.1562 50.0795 56.1562C50.4329 56.1562 50.7195 56.4428 50.7195 56.7962Z" fill="white"/>
<path d="M31.8638 58.1299C46.369 58.1299 58.1279 46.371 58.1279 31.8657C58.1279 17.3604 46.369 5.60156 31.8638 5.60156C17.3585 5.60156 5.59961 17.3604 5.59961 31.8657C5.59961 46.371 17.3585 58.1299 31.8638 58.1299Z" fill="#005BC1"/>
<path d="M22.7151 30.136C20.9791 30.136 19.7951 28.824 19.7951 27.048C19.7951 25.272 20.9391 23.944 22.7151 23.944C23.3711 23.944 23.9391 24.104 24.3471 24.408C24.8831 24.8 25.1951 25.384 25.2671 26.056H23.9071C23.8271 25.496 23.3791 25.08 22.7071 25.08C21.6911 25.08 21.1871 25.92 21.1871 27.048C21.1871 28.184 21.7791 29.008 22.7151 29.008C23.4431 29.008 23.8911 28.536 23.9551 27.92H25.3231C25.2831 28.512 25.0111 29.064 24.6031 29.464C24.1551 29.904 23.5471 30.136 22.7151 30.136ZM27.2033 27.6V30H25.9473V24.048H27.2033V25.688C27.2033 25.728 27.2033 26.072 27.1953 26.352H27.2193C27.4753 25.896 27.9073 25.624 28.4993 25.624C29.4353 25.624 29.9793 26.248 29.9793 27.2V30H28.7313V27.44C28.7313 26.976 28.4833 26.664 28.0193 26.664C27.5312 26.664 27.2033 27.056 27.2033 27.6ZM32.7594 26.512C32.1914 26.512 31.9034 26.88 31.8154 27.464H33.6314C33.5914 26.872 33.2554 26.512 32.7594 26.512ZM34.8314 28.8C34.6154 29.552 33.9194 30.128 32.8234 30.128C31.4314 30.128 30.5754 29.152 30.5754 27.88C30.5754 26.6 31.4634 25.624 32.7594 25.624C33.3674 25.624 33.8474 25.824 34.2234 26.168C34.7034 26.632 34.9194 27.352 34.9114 28.192H31.8074C31.8874 28.824 32.2314 29.216 32.8394 29.216C33.2314 29.216 33.4794 29.064 33.6154 28.8H34.8314ZM37.581 30.136C36.221 30.136 35.341 29.152 35.341 27.88C35.341 26.6 36.213 25.624 37.549 25.624C38.685 25.624 39.389 26.272 39.541 27.2H38.325C38.237 26.808 37.981 26.56 37.565 26.56C36.933 26.56 36.613 27.08 36.613 27.88C36.613 28.656 36.933 29.184 37.565 29.184C38.029 29.184 38.309 28.904 38.365 28.416H39.573C39.533 29.384 38.765 30.136 37.581 30.136ZM42.9342 30L41.8222 28.144L41.3982 28.584V30H40.1582V24.048H41.3982V25.904C41.3982 26.528 41.3742 27 41.3582 27.272L42.7582 25.744H44.2142L42.7022 27.32L44.3902 30H42.9342ZM20.172 40.144C18.58 40.144 17.572 39.408 17.532 38.12H18.908C18.98 38.768 19.404 39.056 20.172 39.056C20.7 39.056 21.196 38.848 21.196 38.36C21.196 37.84 20.692 37.728 19.828 37.528C18.668 37.264 17.724 36.976 17.724 35.736C17.724 34.504 18.732 33.944 20.044 33.944C21.356 33.944 22.284 34.552 22.372 35.72H21.036C20.964 35.256 20.596 34.984 20.004 34.984C19.444 34.984 19.068 35.224 19.068 35.6C19.068 36.064 19.58 36.168 20.516 36.376C21.588 36.616 22.572 36.968 22.572 38.224C22.572 39.456 21.532 40.144 20.172 40.144ZM25.4635 39.16C26.0315 39.16 26.3595 38.672 26.3595 37.912C26.3595 37.152 26.0635 36.624 25.4475 36.624C24.7995 36.624 24.4875 37.192 24.4875 37.912C24.4875 38.64 24.8235 39.16 25.4635 39.16ZM24.5275 40.4V41.416H23.2715V35.744H24.4795V36.352H24.5035C24.7915 35.864 25.2155 35.624 25.7995 35.624C26.9275 35.624 27.6315 36.568 27.6315 37.872C27.6315 39.256 26.8955 40.136 25.7595 40.136C25.1995 40.136 24.7515 39.888 24.5035 39.472H24.4875C24.5035 39.632 24.5275 39.952 24.5275 40.4ZM30.2477 36.512C29.6797 36.512 29.3917 36.88 29.3037 37.464H31.1197C31.0797 36.872 30.7437 36.512 30.2477 36.512ZM32.3197 38.8C32.1037 39.552 31.4077 40.128 30.3117 40.128C28.9197 40.128 28.0637 39.152 28.0637 37.88C28.0637 36.6 28.9517 35.624 30.2477 35.624C30.8557 35.624 31.3357 35.824 31.7117 36.168C32.1917 36.632 32.4077 37.352 32.3997 38.192H29.2957C29.3757 38.824 29.7197 39.216 30.3277 39.216C30.7197 39.216 30.9677 39.064 31.1037 38.8H32.3197ZM35.0133 36.512C34.4453 36.512 34.1573 36.88 34.0693 37.464H35.8853C35.8453 36.872 35.5093 36.512 35.0133 36.512ZM37.0853 38.8C36.8693 39.552 36.1733 40.128 35.0773 40.128C33.6853 40.128 32.8293 39.152 32.8293 37.88C32.8293 36.6 33.7173 35.624 35.0133 35.624C35.6213 35.624 36.1013 35.824 36.4773 36.168C36.9573 36.632 37.1733 37.352 37.1653 38.192H34.0613C34.1413 38.824 34.4853 39.216 35.0933 39.216C35.4853 39.216 35.7333 39.064 35.8693 38.8H37.0853ZM39.7549 39.128C40.3629 39.128 40.7229 38.616 40.7229 37.872C40.7229 37.12 40.4109 36.576 39.7629 36.576C39.1709 36.576 38.8749 37.104 38.8749 37.864C38.8749 38.632 39.1709 39.128 39.7549 39.128ZM39.4189 40.136C38.3149 40.136 37.5949 39.28 37.5949 37.872C37.5949 36.568 38.3309 35.624 39.4349 35.624C40.0189 35.624 40.4109 35.896 40.6989 36.336H40.7229C40.6989 36.072 40.6829 35.704 40.6829 35.352V34.048H41.9389V40H40.7309V39.376H40.7149C40.4669 39.896 39.9949 40.136 39.4189 40.136ZM44.5395 40.136C43.3075 40.136 42.5635 39.544 42.4995 38.688H43.6835C43.7555 39.088 44.0595 39.312 44.5475 39.312C44.9955 39.312 45.2515 39.128 45.2515 38.824C45.2515 38.44 44.7475 38.392 44.1555 38.28C43.3955 38.136 42.6275 37.944 42.6275 36.952C42.6275 36.08 43.4195 35.624 44.4195 35.624C45.6035 35.624 46.1955 36.136 46.3075 36.88H45.1395C45.0595 36.576 44.8195 36.424 44.4195 36.424C44.0355 36.424 43.7875 36.584 43.7875 36.856C43.7875 37.176 44.2515 37.224 44.8355 37.328C45.5955 37.464 46.4595 37.664 46.4595 38.736C46.4595 39.656 45.6435 40.136 44.5395 40.136Z" fill="white"/>
</svg>
