<svg width="259" height="243" viewBox="0 0 259 243" fill="none" xmlns="http://www.w3.org/2000/svg">
<g clip-path="url(#clip0_10473_8994)">
<path d="M257.827 17.6729H1.32129V208.538H257.827V17.6729Z" stroke="black" stroke-width="1.9853"/>
<path d="M-0.146484 111.78H259.44" stroke="black" stroke-width="1.9853"/>
<path d="M91.5674 111.044V17.5254" stroke="black" stroke-width="1.9853"/>
<path d="M139.462 112.008L139.462 18.0352" stroke="black" stroke-width="1.9853"/>
<path d="M158.437 207.879L158.437 112.008" stroke="black" stroke-width="1.9853"/>
<path d="M245.647 82.9146H190.325V111.191H245.647V82.9146Z" stroke="black" stroke-width="0.9927"/>
<path d="M245.94 85.8599H206.173V86.7435H245.94V85.8599Z" stroke="black" stroke-width="0.6024"/>
<path d="M180.787 82.9146H162.591V111.191H180.787V82.9146Z" stroke="black" stroke-width="0.9927"/>
<path d="M169.487 86.7437H174.036" stroke="black" stroke-width="0.2482"/>
<path d="M162.884 90.1309H181.52" stroke="black" stroke-width="0.9927"/>
<path d="M190.472 91.8979H205.733" stroke="black" stroke-width="0.2482"/>
<path d="M190.472 100.146H205.733" stroke="black" stroke-width="0.2482"/>
<path d="M196.342 87.6274H200.744" stroke="black" stroke-width="0.2482"/>
<path d="M196.342 95.8745H200.744" stroke="black" stroke-width="0.2482"/>
<path d="M196.342 104.416H200.744" stroke="black" stroke-width="0.2482"/>
<path d="M190.472 108.393H206.613" stroke="black" stroke-width="0.2482"/>
<path d="M206.467 83.0615V109.865" stroke="black" stroke-width="0.9927"/>
<path d="M49.7457 134.607H17.1689V207.655H49.7457V134.607Z" stroke="black" stroke-width="0.9927"/>
<path d="M18.0498 148.598H49.4526" stroke="black" stroke-width="0.7445"/>
<path d="M18.0498 171.72H49.4526" stroke="black" stroke-width="0.7445"/>
<path d="M18.0498 161.116H49.4526" stroke="black" stroke-width="0.7445"/>
<path d="M18.0498 182.177H49.4526" stroke="black" stroke-width="0.7445"/>
<path d="M18.0498 192.633H49.4526" stroke="black" stroke-width="0.7445"/>
<path d="M18.0498 203.089H49.4526" stroke="black" stroke-width="0.7445"/>
<path d="M23.6254 152.722H21.7178V159.644H23.6254V152.722Z" stroke="black" stroke-width="0.4963"/>
<path d="M25.5336 152.722H23.626V159.644H25.5336V152.722Z" stroke="black" stroke-width="0.4963"/>
<path d="M27.7346 152.722H25.3867V159.644H27.7346V152.722Z" stroke="black" stroke-width="0.4963"/>
<path d="M45.6371 140.498H43.7295V147.862H45.6371V140.498Z" stroke="black" stroke-width="0.4963"/>
<path d="M43.436 144.18H38.7402V147.862H43.436V144.18Z" stroke="black" stroke-width="0.4963"/>
<path d="M25.5336 184.975H20.8379V192.338H25.5336V184.975Z" stroke="black" stroke-width="0.4963"/>
<path d="M29.6422 184.975H25.3867V192.338H29.6422V184.975Z" stroke="black" stroke-width="0.4963"/>
<path d="M34.0444 184.975H29.3486V192.338H34.0444V184.975Z" stroke="black" stroke-width="0.4963"/>
<path d="M46.0771 199.849H36.0986V202.647H46.0771V199.849Z" stroke="black" stroke-width="0.4963"/>
<path d="M41.969 163.473H39.6211V170.836H41.969V163.473Z" stroke="black" stroke-width="0.4963"/>
<path d="M43.8764 163.473H41.9688V170.836H43.8764V163.473Z" stroke="black" stroke-width="0.4963"/>
<path d="M46.0774 163.473H43.7295V170.836H46.0774V163.473Z" stroke="black" stroke-width="0.4963"/>
<path d="M27.2941 168.774H19.957V170.689H27.2941V168.774Z" stroke="black" stroke-width="0.4963"/>
<path d="M38.0063 163.473H36.0986V170.836H38.0063V163.473Z" stroke="black" stroke-width="0.4963"/>
<path d="M23.1859 168.48C23.9153 168.48 24.5066 167.887 24.5066 167.155C24.5066 166.423 23.9153 165.829 23.1859 165.829C22.4565 165.829 21.8652 166.423 21.8652 167.155C21.8652 167.887 22.4565 168.48 23.1859 168.48Z" stroke="black" stroke-width="0.4963"/>
<path d="M212.189 176.433H167.286V207.213H212.189V176.433Z" stroke="black" stroke-width="0.9927"/>
<path d="M212.189 176.433H167.286V179.378H212.189V176.433Z" stroke="black" stroke-width="0.9927"/>
<path d="M252.544 153.017H219.967V207.655H252.544V153.017Z" stroke="black" stroke-width="0.9927"/>
<path d="M236.695 153.164V206.624" stroke="black" stroke-width="0.7445"/>
<path d="M190.178 179.673V206.624" stroke="black" stroke-width="0.7445"/>
<path d="M233.174 177.021V185.563" stroke="black" stroke-width="0.2482"/>
<path d="M186.656 184.238V189.982" stroke="black" stroke-width="0.2482"/>
<path d="M193.847 184.238V189.982" stroke="black" stroke-width="0.2482"/>
<path d="M239.924 177.021V185.563" stroke="black" stroke-width="0.2482"/>
<path d="M112.699 181.293H78.0674V189.835H112.699V181.293Z" fill="white" stroke="black" stroke-width="0.9927"/>
<path d="M83.6438 190.276L78.5078 209.716" stroke="black" stroke-width="0.9927"/>
<path d="M106.095 190.276L111.231 209.716" stroke="black" stroke-width="0.9927"/>
<path d="M95.2363 181.587V189.392" stroke="black" stroke-width="0.2482"/>
<path d="M89.8064 185.858H84.377" stroke="black" stroke-width="0.2482"/>
<path d="M106.388 185.858H100.959" stroke="black" stroke-width="0.2482"/>
<path d="M174.564 75.9375H168.872V82.582H174.564V75.9375Z" fill="white" stroke="#666666"/>
<path d="M99.6151 171.809H92.0254V180.352H99.6151V171.809Z" fill="white" stroke="#666666"/>
<path d="M169 80.5H164.5C162.291 80.5 160.5 82.2909 160.5 84.5V106.25C160.5 107.769 159.269 109 157.75 109V109C156.231 109 155 110.231 155 111.75V202C155 204.209 153.209 206 151 206H119C116.791 206 115 204.209 115 202V183.5C115 181.291 113.209 179.5 111 179.5H99.5" stroke="#005BC1" stroke-width="2"/>
</g>
<defs>
<clipPath id="clip0_10473_8994">
<rect width="259" height="243" fill="white"/>
</clipPath>
</defs>
</svg>
