<svg width="310" height="190" viewBox="0 0 310 190" fill="none" xmlns="http://www.w3.org/2000/svg">
<rect x="1.5" y="1" width="307" height="185" fill="white"/>
<path d="M110.5 124.5H136.5C138.709 124.5 140.5 126.291 140.5 128.5V182C140.5 184.209 142.291 186 144.5 186H197C199.209 186 201 184.209 201 182V135C201 132.791 202.788 131 204.997 131C208.804 131 214.528 131 218.5 131" stroke="#005BC1" stroke-width="2"/>
<path d="M308.5 1H1.5V189H308.5V1Z" stroke="black" stroke-width="1.85"/>
<path d="M137.083 127.815H67.7939V143.93H137.083V127.815Z" fill="white" stroke="black" stroke-width="2"/>
<path d="M80.6849 143.93L69.4053 187.439" stroke="black" stroke-width="2"/>
<path d="M124.191 143.93L133.86 187.439" stroke="black" stroke-width="2"/>
<path d="M101.633 127.815V143.93" stroke="black" stroke-width="0.34"/>
<path d="M91.9647 135.873H80.6851" stroke="black"/>
<path d="M124.192 135.873H114.523" stroke="black"/>
<path d="M239.142 134.668H204.365V188.889H239.142V134.668Z" stroke="black" stroke-width="2"/>
<path d="M217.5 141.998H226.025" stroke="black"/>
<path d="M204.902 148.375H239.142" stroke="black"/>
<path d="M59.8008 77H61.8108L64.1673 83.1343C64.6178 84.3647 65.3109 86.6694 65.3109 86.6694H65.3456C65.3456 86.6694 66.0387 84.382 66.5066 83.1343L68.8111 77H70.8731V88.2982H69.3829V81.4708C69.3829 80.4657 69.4696 78.5769 69.4696 78.5769H69.4349C69.4349 78.5769 68.9844 80.2751 68.6379 81.1589L65.8828 88.3156H64.6698L61.9147 81.1589C61.6028 80.2751 61.1177 78.5769 61.1177 78.5769H61.083C61.083 78.5769 61.1697 80.4657 61.1697 81.4708V88.2982H59.7661V77H59.8008Z" fill="#231F20"/>
<path d="M76.5044 88.5239C73.9919 88.5239 72.519 86.6178 72.519 84.2264C72.519 81.8351 74.0785 79.9463 76.4178 79.9463C77.6307 79.9463 78.5664 80.4142 79.2075 81.2113C79.8833 82.0084 80.2125 83.1867 80.2125 84.573H73.9572C74.0612 86.1673 74.9276 87.3803 76.5044 87.3803C77.6307 87.3803 78.4104 86.8431 78.653 85.9766H80.0392C79.6754 87.5016 78.3758 88.5239 76.4871 88.5239H76.5044ZM73.9919 83.5506H78.705C78.6357 81.9911 77.8213 81.038 76.4178 81.038C75.0142 81.038 74.1652 82.095 73.9919 83.5506Z" fill="#231F20"/>
<path d="M81.1831 85.8202H82.604C82.7772 86.9986 83.6783 87.3971 84.8566 87.3971C86.1388 87.3971 86.6933 86.8426 86.6933 86.1148C86.6933 85.2137 86.0175 84.9884 84.562 84.7112C82.9679 84.3819 81.5297 84.0354 81.5297 82.2505C81.5297 80.8469 82.6213 79.9805 84.5273 79.9805C86.572 79.9805 87.5943 80.9335 87.7676 82.3545H86.3641C86.2428 81.5227 85.671 81.0548 84.4927 81.0548C83.3837 81.0548 82.9159 81.5747 82.9159 82.1985C82.9159 83.0476 83.7129 83.2209 85.0818 83.4809C86.7106 83.7928 88.0968 84.1567 88.0968 86.0628C88.0968 87.709 86.7279 88.5754 84.8219 88.5754C82.5693 88.5754 81.3044 87.5184 81.1831 85.8549V85.8202Z" fill="#231F20"/>
<path d="M91.0251 88.2982H89.6216V77H91.0251V79.9632C91.0251 80.3618 91.0251 80.9336 90.9731 81.3321H91.0251C91.6316 80.4657 92.446 79.9459 93.6416 79.9459C95.3397 79.9459 96.3967 80.8989 96.3967 82.5971V88.2982H94.9931V82.7704C94.9931 81.7307 94.3174 81.1242 93.2084 81.1242C91.9435 81.1242 91.0424 82.0253 91.0424 83.3249V88.2809L91.0251 88.2982Z" fill="#231F20"/>
<path d="M104.021 83.5849V88.2982H102.479V77H107.763C109.791 77 111.142 78.2477 111.142 80.1192C111.142 81.5054 110.588 82.4758 109.08 82.9437V82.9957C110.363 83.3769 110.726 84.1394 110.83 85.7509C110.969 87.5358 111.125 88.073 111.35 88.2289V88.2982H109.687C109.427 88.0903 109.392 87.5704 109.271 85.7683C109.167 84.174 108.491 83.6022 107.018 83.6022H104.021V83.5849ZM104.021 82.3545H107.261C108.803 82.3545 109.548 81.5747 109.548 80.3444C109.548 79.0274 108.924 78.3343 107.33 78.3343H104.021V82.3372V82.3545Z" fill="#231F20"/>
<path d="M112.373 84.2264C112.373 81.8524 113.915 79.9463 116.358 79.9463C118.802 79.9463 120.326 81.8524 120.326 84.2264C120.326 86.6005 118.819 88.5239 116.358 88.5239C113.898 88.5239 112.373 86.6178 112.373 84.2264ZM118.888 84.2264C118.888 82.4589 118.022 81.0726 116.358 81.0726C114.695 81.0726 113.829 82.4763 113.829 84.2264C113.829 85.9766 114.695 87.3629 116.358 87.3629C118.022 87.3629 118.888 85.9766 118.888 84.2264Z" fill="#231F20"/>
<path d="M121.764 85.7688V80.1543H123.168V85.6994C123.168 86.7392 123.826 87.3457 124.953 87.3457C126.2 87.3457 126.997 86.3926 126.997 85.1276V80.1716H128.401V88.3161H126.997V87.1724H126.963C126.391 87.9695 125.68 88.4893 124.502 88.4893C122.821 88.4893 121.747 87.467 121.747 85.7688H121.764Z" fill="#231F20"/>
<path d="M132.975 88.3506C131.884 88.3506 131.121 87.9001 131.121 86.6871V81.2286H129.839V80.1369H131.121V77.5723H132.525V80.1369H134.205V81.2286H132.525V86.3752C132.525 86.9644 132.837 87.1376 133.356 87.1376C133.599 87.1376 133.911 87.0683 134.067 87.0337H134.119V88.212C133.738 88.2987 133.339 88.3506 132.975 88.3506Z" fill="#231F20"/>
<path d="M139.127 88.5239C136.614 88.5239 135.142 86.6178 135.142 84.2264C135.142 81.8351 136.701 79.9463 139.04 79.9463C140.253 79.9463 141.189 80.4142 141.83 81.2113C142.506 82.0084 142.835 83.1867 142.835 84.573H136.58C136.684 86.1673 137.55 87.3803 139.127 87.3803C140.253 87.3803 141.033 86.8431 141.276 85.9766H142.662C142.298 87.5016 140.998 88.5239 139.11 88.5239H139.127ZM136.632 83.5506H141.345C141.276 81.9911 140.461 81.038 139.058 81.038C137.654 81.038 136.805 82.095 136.632 83.5506Z" fill="#231F20"/>
<path d="M144.325 88.2982V80.1538H145.729V81.6267H145.781C146.283 80.691 147.115 80.0498 148.189 80.0498C148.415 80.0498 148.553 80.0845 148.709 80.1364V81.4707H148.657C148.466 81.4014 148.328 81.4014 148.085 81.4014C146.82 81.4014 145.746 82.3372 145.746 83.8794V88.3155H144.343L144.325 88.2982Z" fill="#231F20"/>
<path d="M188.077 77.7607H190.087L192.443 83.8951C192.894 85.1254 193.587 87.4301 193.587 87.4301H193.621C193.621 87.4301 194.315 85.1427 194.782 83.8951L197.087 77.7607H199.149V89.059H197.659V82.2315C197.659 81.2265 197.745 79.3377 197.745 79.3377H197.711C197.711 79.3377 197.26 81.0358 196.914 81.9196L194.159 89.0763H192.946L190.191 81.9196C189.879 81.0358 189.394 79.3377 189.394 79.3377H189.359C189.359 79.3377 189.446 81.2265 189.446 82.2315V89.059H188.042V77.7607H188.077Z" fill="#231F20"/>
<path d="M204.763 89.2847C202.25 89.2847 200.777 87.3785 200.777 84.9872C200.777 82.5958 202.337 80.707 204.676 80.707C205.889 80.707 206.825 81.1749 207.466 81.972C208.142 82.7691 208.471 83.9475 208.471 85.3338H202.216C202.32 86.928 203.186 88.141 204.763 88.141C205.889 88.141 206.669 87.6038 206.911 86.7374H208.298C207.934 88.2623 206.634 89.2847 204.745 89.2847H204.763ZM202.25 84.3114H206.963C206.894 82.7518 206.08 81.7987 204.676 81.7987C203.273 81.7987 202.423 82.8558 202.25 84.3114Z" fill="#231F20"/>
<path d="M209.441 86.581H210.862C211.036 87.7593 211.937 88.1578 213.115 88.1578C214.397 88.1578 214.952 87.6033 214.952 86.8755C214.952 85.9744 214.276 85.7492 212.82 85.4719C211.226 85.1427 209.788 84.7961 209.788 83.0113C209.788 81.6076 210.88 80.7412 212.786 80.7412C214.83 80.7412 215.853 81.6943 216.026 83.1152H214.622C214.501 82.2835 213.929 81.8156 212.751 81.8156C211.642 81.8156 211.174 82.3354 211.174 82.9593C211.174 83.8084 211.971 83.9817 213.34 84.2416C214.969 84.5535 216.355 84.9174 216.355 86.8235C216.355 88.4871 214.986 89.3362 213.08 89.3362C210.828 89.3362 209.563 88.2791 209.441 86.6156V86.581Z" fill="#231F20"/>
<path d="M219.283 89.059H217.88V77.7607H219.283V80.7239C219.283 81.1225 219.283 81.6943 219.231 82.0929H219.283C219.89 81.2265 220.704 80.7066 221.9 80.7066C223.598 80.7066 224.655 81.6597 224.655 83.3579V89.059H223.251V83.5312C223.251 82.4915 222.576 81.885 221.467 81.885C220.202 81.885 219.301 82.786 219.301 84.0857V89.0417L219.283 89.059Z" fill="#231F20"/>
<path d="M230.737 77.7607H232.366L236.993 84.8308C237.547 85.6626 238.257 87.0835 238.257 87.0835H238.309C238.309 87.0835 238.206 85.6106 238.206 84.6749V77.7607H239.661V89.059H238.05L233.44 81.9889C232.886 81.1398 232.158 79.7535 232.158 79.7535H232.124C232.124 79.7535 232.21 81.2265 232.21 82.1449V89.059H230.755V77.7607H230.737Z" fill="#231F20"/>
<path d="M241.342 84.9872C241.342 82.6132 242.867 80.707 245.327 80.707C247.788 80.707 249.295 82.6132 249.295 84.9872C249.295 87.3612 247.788 89.2847 245.327 89.2847C242.867 89.2847 241.342 87.3785 241.342 84.9872ZM247.84 84.9872C247.84 83.2197 246.973 81.8334 245.31 81.8334C243.646 81.8334 242.78 83.237 242.78 84.9872C242.78 86.7374 243.646 88.1237 245.31 88.1237C246.973 88.1237 247.84 86.7374 247.84 84.9872Z" fill="#231F20"/>
<path d="M250.335 85.0041C250.335 82.3182 251.877 80.7066 253.904 80.7066C255.065 80.7066 255.966 81.2785 256.486 82.1449H256.521C256.521 81.7637 256.469 81.1745 256.469 80.6373V77.7607H257.872V89.059H256.469V87.898H256.434C255.914 88.7817 255.048 89.3016 253.922 89.3016C251.721 89.3016 250.317 87.638 250.317 85.0041H250.335ZM256.538 85.0214C256.538 83.1846 255.672 81.885 254.025 81.885C252.518 81.885 251.756 83.2193 251.756 85.0214C251.756 86.8236 252.518 88.1406 254.025 88.1406C255.776 88.1406 256.538 86.8236 256.538 85.0214Z" fill="#231F20"/>
<path d="M263.348 89.2847C260.835 89.2847 259.362 87.3785 259.362 84.9872C259.362 82.5958 260.922 80.707 263.261 80.707C264.474 80.707 265.41 81.1749 266.051 81.972C266.727 82.7691 267.056 83.9475 267.056 85.3338H260.801C260.904 86.928 261.771 88.141 263.348 88.141C264.474 88.141 265.254 87.6038 265.496 86.7374H266.882C266.519 88.2623 265.219 89.2847 263.33 89.2847H263.348ZM260.835 84.3114H265.548C265.479 82.7518 264.665 81.7987 263.261 81.7987C261.857 81.7987 261.008 82.8558 260.835 84.3114Z" fill="#231F20"/>
<path d="M218.652 131.65V119.146H227.932V131.65H218.652Z" fill="white" stroke="#666666" stroke-width="2"/>
<path d="M97.7988 125.204V109.478H110.301V125.204H97.7988Z" fill="white" stroke="#666666" stroke-width="2"/>
</svg>
